<?xml version="1.0" encoding="UTF-8"?>
<svg xmlns="http://www.w3.org/2000/svg" xmlns:xlink="http://www.w3.org/1999/xlink" version="1.1" viewBox="0 0 948.6 221.22">
  <defs>
    <style>
      .cls-1 {
        fill: url(#linear-gradient-8);
      }

      .cls-2 {
        fill: url(#linear-gradient-7);
      }

      .cls-3 {
        fill: url(#linear-gradient-5);
      }

      .cls-4 {
        fill: url(#linear-gradient-6);
      }

      .cls-5 {
        fill: url(#linear-gradient-9);
      }

      .cls-6 {
        fill: url(#linear-gradient-4);
      }

      .cls-7 {
        fill: url(#linear-gradient-3);
      }

      .cls-8 {
        fill: url(#linear-gradient-2);
      }

      .cls-9 {
        fill: url(#linear-gradient);
      }

      .cls-10 {
        font-family: STIXGeneral-Italic, STIXGeneral;
        font-style: italic;
      }

      .cls-10, .cls-11 {
        font-size: 156px;
      }

      .cls-12 {
        fill: url(#linear-gradient-10);
      }

      .cls-13 {
        fill: url(#linear-gradient-11);
      }

      .cls-11 {
        font-family: Helvetica-Bold, Helvetica;
        font-weight: 700;
        letter-spacing: 0em;
      }
    </style>
    <linearGradient id="linear-gradient" x1="63.18" y1="78.11" x2="63.18" y2="166.03" gradientUnits="userSpaceOnUse">
      <stop offset="0" stop-color="#333"/>
      <stop offset="1" stop-color="#1a1a1a"/>
    </linearGradient>
    <linearGradient id="linear-gradient-2" x1="144.11" y1="78.11" x2="144.11" y2="164.69" xlink:href="#linear-gradient"/>
    <linearGradient id="linear-gradient-3" x1="230.49" y1="78.11" x2="230.49" y2="162.58" xlink:href="#linear-gradient"/>
    <linearGradient id="linear-gradient-4" x1="305.66" y1="78.11" x2="305.66" y2="202.04" xlink:href="#linear-gradient"/>
    <linearGradient id="linear-gradient-5" x1="402.56" y1="76.31" x2="402.56" y2="166.85" xlink:href="#linear-gradient"/>
    <linearGradient id="linear-gradient-6" x1="494.54" y1="78.35" x2="494.54" y2="165.75" xlink:href="#linear-gradient"/>
    <linearGradient id="linear-gradient-7" x1="578.51" y1="76.31" x2="578.51" y2="163.87" xlink:href="#linear-gradient"/>
    <linearGradient id="linear-gradient-8" x1="649.89" y1="76.31" x2="649.89" y2="166.54" xlink:href="#linear-gradient"/>
    <linearGradient id="linear-gradient-9" x1="719.38" y1="55.28" x2="719.38" y2="165.09" xlink:href="#linear-gradient"/>
    <linearGradient id="linear-gradient-10" x1="790.7" y1="76.07" x2="790.7" y2="166.69" xlink:href="#linear-gradient"/>
    <linearGradient id="linear-gradient-11" x1="881.64" y1="48.38" x2="881.64" y2="166.54" xlink:href="#linear-gradient"/>
  </defs>
  <!-- Generator: Adobe Illustrator 28.7.3, SVG Export Plug-In . SVG Version: 1.2.0 Build 164)  -->
  <g>
    <g id="Layer_1">
      <path class="cls-9" d="M66.06,143.05c13.79-14.17,26.24-35.24,26.24-44.25,0-1.92-.96-3.26-3.45-5.55-3.45-3.06-4.79-5.55-4.79-8.62,0-4.02,3.26-6.51,7.28-6.51,6.32,0,10.73,6.13,10.73,11.3,0,8.24-5.36,19.35-12.07,29.69-8.62,13.41-19.35,25.67-22.79,29.31-10.53,11.3-15.71,17.62-18.96,17.62-1.15,0-1.72-1.92-1.72-5.17v-4.6c0-13.22-2.11-38.69-4.6-53.25-2.49-14.56-4.6-17.81-11.68-17.81-1.91,0-3.83,0-5.94.19v-2.49c8.62-1.34,15.32-2.68,21.45-4.02,1.53-.57,2.87-.77,3.83-.77,1.72,0,1.72,1.15,5.75,21.83,2.49,12.83,3.64,23.37,4.79,49.23l5.94-6.13Z"/>
      <path class="cls-8" d="M172.55,144c-10.92,13.41-23.18,20.69-39.07,20.69s-25.86-10.34-25.86-26.24c0-29.69,28.54-60.33,57.27-60.33,10.15,0,15.71,4.98,15.71,13.02,0,16.47-20.11,31.41-54.4,35.82-1.92,3.83-1.92,8.81-1.92,11.68,0,10.53,7.09,17.43,17.81,17.43,8.43,0,14.37-3.06,28.16-14.37l2.3,2.3ZM127.54,122.74c16.47-4.02,23.75-7.47,30.84-14.17,5.94-5.75,9.58-12.64,9.58-18.58,0-4.6-1.34-7.47-6.7-7.47-10.92,0-23.94,14.75-30.45,31.8l-3.26,8.43Z"/>
      <path class="cls-7" d="M223.49,113.17c3.64-8.04,10.15-18.2,18-26.43,4.98-5.17,10.73-8.62,15.13-8.62,5.36,0,9,4.02,9,9.77s-3.26,10.34-9,10.34c-3.45,0-4.98-2.11-6.7-4.98-1.15-1.92-1.72-2.68-3.06-2.68-3.45,0-8.81,6.32-15.71,18-8.24,14.17-11.68,21.84-21.26,54.01h-14.56l15.51-55.93c2.68-9.96,3.06-11.68,3.06-15.71s-3.45-4.98-7.28-4.98c-1.53,0-3.06.19-5.94.57v-3.26l29.69-5.17.57.38-10.53,41.37,3.06-6.7Z"/>
      <path class="cls-6" d="M317.72,148.03c16.28-27.01,23.37-40.8,23.37-49.23,0-2.68-1.34-3.83-4.98-6.13-3.83-2.49-4.98-4.41-4.98-7.47,0-4.21,3.26-7.09,7.66-7.09,5.75,0,9.96,4.79,9.96,10.53,0,10.92-9.19,31.99-25.09,58.42-19.92,32.94-40.42,54.97-51.33,54.97-5.75,0-9.77-3.26-9.77-8.24,0-4.21,3.26-7.66,7.47-7.66,6.7,0,6.7,5.36,11.68,5.36,2.49,0,4.79-1.53,9.19-6.32,3.45-3.64,12.07-14.94,13.6-17.43,1.15-2.3,1.91-4.6,1.91-6.7,0-7.66-10.53-50.57-15.71-63.59-3.64-9.39-7.09-12.26-14.75-12.26-2.11,0-3.83.19-5.94.77v-3.26c2.11-.38,4.21-.77,6.13-1.15,3.83-.77,10.15-1.91,20.49-3.45h.77c2.87,0,13.02,31.8,16.28,48.84l4.02,21.07Z"/>
      <path class="cls-3" d="M441.99,109.03h-22.91c-.42-3.19-1.49-6.07-3.22-8.63-2.51-3.45-6.41-5.18-11.69-5.18-7.53,0-12.68,3.74-15.46,11.22-1.47,3.98-2.2,9.26-2.2,15.85s.73,11.33,2.2,15.14c2.67,7.11,7.69,10.67,15.06,10.67,5.23,0,8.94-1.41,11.14-4.24s3.53-6.48,4-10.98h22.83c-.52,6.8-2.98,13.23-7.38,19.3-7.01,9.78-17.39,14.67-31.15,14.67s-23.88-4.08-30.36-12.24c-6.49-8.16-9.73-18.75-9.73-31.78,0-14.7,3.58-26.13,10.75-34.29,7.17-8.16,17.05-12.24,29.66-12.24,10.72,0,19.5,2.41,26.32,7.22,6.83,4.81,10.87,13.31,12.12,25.5Z"/>
      <path class="cls-4" d="M511.41,151.79c-.21.26-.73,1.05-1.57,2.35-.84,1.31-1.83,2.46-2.98,3.45-3.51,3.14-6.89,5.28-10.16,6.43-3.27,1.15-7.1,1.73-11.49,1.73-12.66,0-21.18-4.55-25.58-13.65-2.46-5.02-3.69-12.42-3.69-22.2v-51.55h22.91v51.55c0,4.86.57,8.53,1.73,10.98,2.04,4.34,6.04,6.51,12,6.51,7.64,0,12.87-3.09,15.69-9.26,1.46-3.35,2.2-7.77,2.2-13.26v-46.53h22.67v85.52h-21.73v-12.08Z"/>
      <path class="cls-2" d="M596.91,98.98c-9,0-15.04,2.93-18.12,8.79-1.73,3.3-2.59,8.37-2.59,15.22v40.88h-22.52v-85.52h21.34v14.91c3.45-5.7,6.46-9.6,9.02-11.69,4.18-3.5,9.62-5.26,16.32-5.26.42,0,.77.01,1.06.04.29.03.93.07,1.92.12v22.91c-1.41-.16-2.67-.26-3.77-.31-1.1-.05-1.99-.08-2.67-.08Z"/>
      <path class="cls-1" d="M618.86,87.61c5.91-7.53,16.06-11.3,30.44-11.3,9.36,0,17.68,1.86,24.95,5.57,7.27,3.71,10.91,10.72,10.91,21.03v39.23c0,2.72.05,6.02.16,9.89.16,2.93.6,4.92,1.33,5.96.73,1.05,1.83,1.91,3.3,2.59v3.3h-24.32c-.68-1.73-1.15-3.35-1.41-4.86-.26-1.52-.47-3.24-.63-5.18-3.09,3.35-6.64,6.2-10.67,8.55-4.81,2.77-10.25,4.16-16.32,4.16-7.74,0-14.14-2.21-19.18-6.63-5.05-4.42-7.57-10.68-7.57-18.79,0-10.51,4.05-18.12,12.16-22.83,4.45-2.56,10.98-4.39,19.61-5.49l7.61-.94c4.13-.52,7.09-1.18,8.87-1.96,3.19-1.36,4.79-3.48,4.79-6.36,0-3.5-1.22-5.92-3.65-7.26s-6-2-10.71-2c-5.28,0-9.02,1.31-11.22,3.92-1.57,1.94-2.62,4.55-3.14,7.85h-21.58c.47-7.48,2.56-13.62,6.28-18.44ZM635.49,147.71c2.09,1.73,4.65,2.59,7.69,2.59,4.81,0,9.24-1.41,13.3-4.24,4.05-2.82,6.16-7.98,6.32-15.46v-8.32c-1.41.89-2.84,1.61-4.28,2.16-1.44.55-3.41,1.06-5.92,1.53l-5.02.94c-4.71.84-8.08,1.86-10.12,3.06-3.45,2.04-5.18,5.21-5.18,9.49,0,3.82,1.07,6.56,3.22,8.24Z"/>
      <path class="cls-5" d="M743.35,147.94v16.71l-10.59.39c-10.57.37-17.78-1.46-21.65-5.49-2.51-2.56-3.77-6.51-3.77-11.85v-52.65h-11.93v-15.93h11.93v-23.85h22.13v23.85h13.89v15.93h-13.89v45.19c0,3.51.44,5.69,1.33,6.55.89.86,3.61,1.29,8.16,1.29.68,0,1.4-.01,2.16-.04.76-.03,1.5-.06,2.24-.12Z"/>
      <path class="cls-12" d="M830.11,138.76c-.58,5.07-3.22,10.23-7.92,15.46-7.32,8.32-17.58,12.48-30.76,12.48-10.88,0-20.48-3.5-28.79-10.51-8.32-7.01-12.48-18.41-12.48-34.21,0-14.8,3.75-26.15,11.26-34.05,7.5-7.9,17.25-11.85,29.23-11.85,7.11,0,13.52,1.33,19.22,4,5.7,2.67,10.41,6.88,14.12,12.63,3.35,5.07,5.52,10.96,6.51,17.65.57,3.92.81,9.57.71,16.95h-58.53c.31,8.58,3.01,14.59,8.08,18.05,3.09,2.15,6.8,3.22,11.14,3.22,4.6,0,8.34-1.31,11.22-3.92,1.57-1.41,2.95-3.37,4.16-5.88h22.83ZM807.98,112.56c-.37-5.91-2.16-10.4-5.37-13.46s-7.21-4.59-11.97-4.59c-5.18,0-9.19,1.62-12.04,4.86-2.85,3.24-4.64,7.64-5.37,13.18h34.76Z"/>
      <path class="cls-13" d="M923.3,48.38v115.49h-21.73v-11.85c-3.19,5.07-6.83,8.76-10.91,11.06s-9.15,3.45-15.22,3.45c-9.99,0-18.4-4.04-25.22-12.12-6.83-8.08-10.24-18.45-10.24-31.11,0-14.59,3.36-26.07,10.08-34.44,6.72-8.37,15.7-12.55,26.95-12.55,5.18,0,9.78,1.14,13.81,3.41,4.03,2.28,7.3,5.43,9.81,9.45v-40.8h22.67ZM863.04,121.66c0,7.9,1.57,14.2,4.71,18.91,3.09,4.76,7.79,7.14,14.12,7.14s11.14-2.35,14.44-7.06,4.94-10.8,4.94-18.28c0-10.46-2.64-17.94-7.92-22.44-3.24-2.72-7.01-4.08-11.3-4.08-6.54,0-11.34,2.47-14.4,7.41s-4.59,11.08-4.59,18.4Z"/>
      <text class="cls-10" transform="translate(320.73 1099.13)"><tspan x="0" y="0">very</tspan></text>
      <text class="cls-11" transform="translate(603.09 1108.72)"><tspan x="0" y="0">curated</tspan></text>
    </g>
  </g>
</svg>